<svg width="16" height="16" viewBox="0 0 16 16" fill="none" xmlns="http://www.w3.org/2000/svg">
<path d="M0 8C0 3.58172 3.58172 0 8 0C12.4183 0 16 3.58172 16 8C16 12.4183 12.4183 16 8 16C3.58172 16 0 12.4183 0 8Z" fill="white"/>
<path fill-rule="evenodd" clip-rule="evenodd" d="M6.03592 6.61211C5.02634 7.11248 4.2332 7.98375 3.83468 9.04778C3.44725 8.64001 3.10137 8.1804 2.80774 7.67182C2.13901 6.51354 1.82576 5.24757 1.83415 4.00024C3.45899 4.34477 4.96083 5.24252 6.03592 6.61211Z" fill="#FD885C"/>
<path fill-rule="evenodd" clip-rule="evenodd" d="M3.83604 9.04693C4.47021 7.35482 6.10243 6.15039 8.01595 6.15039C9.92106 6.15039 11.5473 7.34424 12.1874 9.02461C11.7594 9.47905 11.2801 9.86978 10.764 10.1929C11.3367 10.2116 11.9113 10.2984 12.4756 10.4566L12.4767 10.4903C11.5849 12.0281 9.92084 13.0623 8.01525 13.0623C6.11062 13.0623 4.4473 12.0291 3.55518 10.4926C3.55556 10.478 3.55602 10.4633 3.55655 10.4487C4.11147 10.2957 4.67611 10.2116 5.23891 10.1932C4.73106 9.87534 4.2588 9.492 3.83604 9.04693Z" fill="url(#paint0_linear_435_5000)"/>
<path fill-rule="evenodd" clip-rule="evenodd" d="M3.83604 9.04693C4.47021 7.35482 6.10243 6.15039 8.01595 6.15039C9.92106 6.15039 11.5473 7.34424 12.1874 9.02461C11.7594 9.47905 11.2801 9.86978 10.764 10.1929C11.3367 10.2116 11.9113 10.2984 12.4756 10.4566L12.4767 10.4903C11.5849 12.0281 9.92084 13.0623 8.01525 13.0623C6.11062 13.0623 4.4473 12.0291 3.55518 10.4926C3.55556 10.478 3.55602 10.4633 3.55655 10.4487C4.11147 10.2957 4.67611 10.2116 5.23891 10.1932C4.73106 9.87534 4.2588 9.492 3.83604 9.04693Z" fill="url(#paint1_radial_435_5000)"/>
<rect x="6.25" y="8.375" width="0.75" height="1.875" rx="0.375" fill="url(#paint2_linear_435_5000)"/>
<rect x="9" y="8.375" width="0.75" height="1.875" rx="0.375" fill="url(#paint3_linear_435_5000)"/>
<path d="M7.80332 11.027C7.84988 11.0887 7.9227 11.125 8 11.125C8.0773 11.125 8.15012 11.0887 8.19668 11.027L8.35032 10.8234C8.41187 10.7418 8.35367 10.625 8.25148 10.625H7.74852C7.64633 10.625 7.58813 10.7418 7.64968 10.8234L7.80332 11.027Z" fill="#3E3958"/>
<path fill-rule="evenodd" clip-rule="evenodd" d="M12.1864 9.02349C12.5646 8.62179 12.9026 8.17033 13.1904 7.67182C13.8591 6.51354 14.1724 5.24757 14.164 4.00024C12.5437 4.34381 11.0457 5.23753 9.97119 6.60071C10.9841 7.09541 11.7819 7.96239 12.1864 9.02349ZM12.1549 9.05679C11.7518 9.4796 11.3039 9.84644 10.8233 10.1541C10.8228 10.1541 10.8222 10.1542 10.8217 10.1542C11.3028 9.84649 11.7512 9.47945 12.1547 9.05635C12.1548 9.0565 12.1548 9.05665 12.1549 9.05679Z" fill="#FD885C"/>
<path fill-rule="evenodd" clip-rule="evenodd" d="M13.7414 6.48785C14.0331 5.67545 14.1711 4.83368 14.1655 4.00024C13.3693 4.16905 12.6027 4.47068 11.9014 4.89556C12.677 5.20823 13.3241 5.77276 13.7414 6.48785Z" fill="url(#paint4_linear_435_5000)"/>
<path fill-rule="evenodd" clip-rule="evenodd" d="M2.26011 6.48647C1.96875 5.67449 1.83092 4.83321 1.83652 4.00024C2.63246 4.16901 3.39889 4.47053 4.1001 4.89524C3.32458 5.20765 2.67751 5.7718 2.26011 6.48647Z" fill="url(#paint5_linear_435_5000)"/>
<defs>
<linearGradient id="paint0_linear_435_5000" x1="8.0164" y1="6.15039" x2="8.0164" y2="12.7498" gradientUnits="userSpaceOnUse">
<stop stop-color="#FF9F76"/>
<stop offset="1" stop-color="#F76A3E"/>
</linearGradient>
<radialGradient id="paint1_radial_435_5000" cx="0" cy="0" r="1" gradientUnits="userSpaceOnUse" gradientTransform="translate(8.00143 13.0623) rotate(-90) scale(2.12498 2.60742)">
<stop stop-color="#F14550" stop-opacity="0.41"/>
<stop offset="1" stop-color="#F14550" stop-opacity="0"/>
</radialGradient>
<linearGradient id="paint2_linear_435_5000" x1="6.625" y1="9" x2="6.625" y2="10.25" gradientUnits="userSpaceOnUse">
<stop stop-color="white"/>
<stop offset="1" stop-color="#EEDCD4"/>
</linearGradient>
<linearGradient id="paint3_linear_435_5000" x1="9.375" y1="9" x2="9.375" y2="10.25" gradientUnits="userSpaceOnUse">
<stop stop-color="white"/>
<stop offset="1" stop-color="#EEDCD4"/>
</linearGradient>
<linearGradient id="paint4_linear_435_5000" x1="13.3756" y1="4.51587" x2="14.4226" y2="5.65644" gradientUnits="userSpaceOnUse">
<stop stop-color="white"/>
<stop offset="1" stop-color="#EECDC6"/>
</linearGradient>
<linearGradient id="paint5_linear_435_5000" x1="2.78238" y1="4.15637" x2="1.59542" y2="5.56217" gradientUnits="userSpaceOnUse">
<stop stop-color="white"/>
<stop offset="1" stop-color="#EECDC6"/>
</linearGradient>
</defs>
</svg>
