<svg width="16" height="16" viewBox="0 0 16 16" fill="none" xmlns="http://www.w3.org/2000/svg">
<circle cx="8" cy="8" r="8" fill="white"/>
<path d="M12.2367 4.46529L10.7644 5.12203C10.7214 5.14566 10.6856 5.18047 10.6606 5.22281C10.6356 5.26516 10.6224 5.31347 10.6224 5.36271V10.6575C10.6222 10.7072 10.6358 10.7561 10.6616 10.7986C10.6874 10.8411 10.7243 10.8755 10.7684 10.8981L12.2408 11.5386C12.2617 11.5501 12.2854 11.5559 12.3093 11.5554C12.3332 11.5549 12.3565 11.5482 12.377 11.5358C12.3975 11.5234 12.4144 11.5059 12.4261 11.4849C12.4378 11.4639 12.4438 11.4402 12.4436 11.4162V4.58766C12.4428 4.56358 12.436 4.54009 12.4238 4.51937C12.4115 4.49865 12.3943 4.48138 12.3737 4.46917C12.353 4.45696 12.3296 4.45019 12.3057 4.44951C12.2817 4.44884 12.258 4.45426 12.2367 4.46529ZM5.18523 5.11388L3.7575 4.46121C3.73652 4.44968 3.71291 4.44388 3.68901 4.44436C3.6651 4.44485 3.64175 4.45161 3.62125 4.46398C3.60075 4.47635 3.58382 4.4939 3.57215 4.51488C3.56047 4.53586 3.55446 4.55954 3.55469 4.58358V11.4121C3.55471 11.4369 3.5613 11.4612 3.57377 11.4825C3.58624 11.5038 3.60414 11.5215 3.62564 11.5335C3.64713 11.5456 3.67144 11.5516 3.69604 11.5511C3.72065 11.5505 3.74466 11.5434 3.76561 11.5304L5.20146 10.7676C5.24112 10.7433 5.27389 10.7092 5.29662 10.6684C5.31935 10.6277 5.33128 10.5818 5.33125 10.5351V5.35455C5.3297 5.30515 5.31543 5.25701 5.28984 5.21482C5.26424 5.17264 5.2282 5.13785 5.18523 5.11388ZM9.66313 6.92095L8.12588 6.03577C8.0846 6.0117 8.03773 5.99903 7.99001 5.99903C7.94229 5.99903 7.89541 6.0117 7.85413 6.03577L6.28848 6.91279C6.2466 6.9373 6.21183 6.97242 6.18763 7.01464C6.16344 7.05687 6.15066 7.10473 6.15058 7.15346V8.9483C6.15058 9.04742 6.20331 9.13921 6.28848 9.18897L7.85413 10.0945C7.93809 10.1435 8.04192 10.1435 8.12588 10.0945L9.66313 9.19713C9.70502 9.17262 9.73979 9.1375 9.76398 9.09528C9.78818 9.05305 9.80096 9.00519 9.80104 8.95646V7.16162C9.80145 7.11279 9.78889 7.06473 9.76464 7.02242C9.7404 6.98011 9.70535 6.94508 9.66313 6.92095Z" fill="url(#paint0_linear_435_4875)"/>
<defs>
<linearGradient id="paint0_linear_435_4875" x1="7.99913" y1="4.44434" x2="7.99913" y2="11.5554" gradientUnits="userSpaceOnUse">
<stop stop-color="#00B2FB"/>
<stop offset="1" stop-color="#2963E5"/>
</linearGradient>
</defs>
</svg>
