<svg width="16" height="16" viewBox="0 0 16 16" fill="none" xmlns="http://www.w3.org/2000/svg">
<path fill-rule="evenodd" clip-rule="evenodd" d="M0 8C0 3.58172 3.58172 0 8 0C12.4183 0 16 3.58172 16 8C16 12.4183 12.4183 16 8 16C3.58172 16 0 12.4183 0 8ZM9 4.5C9 3.94772 8.55229 3.5 8 3.5C7.44772 3.5 7 3.94772 7 4.5V8.17071C7.31278 8.06015 7.64936 8 8 8C8.35064 8 8.68722 8.06015 9 8.17071V4.5ZM8 12.25C8.69036 12.25 9.25 11.6904 9.25 11C9.25 10.3096 8.69036 9.75 8 9.75C7.30964 9.75 6.75 10.3096 6.75 11C6.75 11.6904 7.30964 12.25 8 12.25Z" fill="#F58721"/>
</svg>
